<?xml version="1.0" encoding="UTF-8"?>
<svg id="Capa_1" data-name="Capa 1" xmlns="http://www.w3.org/2000/svg" viewBox="0 0 160.22 163.63">
  <path d="M32.25,103.15c1.59,13.31,6.81,25.3,14.53,35.12l-16.98,17.72c-.08-.1-.17-.2-.25-.3l10.93-11.4c-7.72-9.82-12.93-21.81-14.53-35.12-2.92-24.43,7.04-47.44,24.53-62.21-13.52,14.62-20.78,34.86-18.23,56.19Z" fill="#1d1d1b"/>
  <path d="M160.22,19.88l-16.98,17.72c-.11-.08-.21-.15-.32-.22l11-11.48C134.92,11.17,110.35,3.62,84.6,6.7c-19.61,2.35-37.11,10.52-50.95,22.59C48.31,13.94,68.18,3.4,90.89.68c25.76-3.08,50.33,4.47,69.33,19.2Z" fill="#1d1d1b"/>
  <path d="M153.92,25.9l-11,11.48-5.98,6.24c-13.81-9.92-31.23-14.91-49.45-12.73-14.18,1.7-26.86,7.5-37.01,16.07-17.49,14.77-27.45,37.78-24.53,62.21,1.6,13.31,6.81,25.3,14.53,35.12l-10.93,11.4-6.05,6.32c-11.6-13.68-19.45-30.81-21.74-49.95-3.87-32.36,9.04-62.86,31.89-82.77,13.84-12.07,31.34-20.24,50.95-22.59,25.75-3.08,50.32,4.47,69.32,19.2Z" fill="#ffe971" stroke="#0b090b" stroke-miterlimit="10" stroke-width="2.17"/>
</svg>