<?xml version="1.0" encoding="UTF-8"?>
<svg id="Capa_2" data-name="Capa 2" xmlns="http://www.w3.org/2000/svg" xmlns:xlink="http://www.w3.org/1999/xlink" viewBox="0 0 808.69 655.81">
  <defs>
    <style>
      .cls-1 {
        letter-spacing: 0em;
      }

      .cls-2 {
        letter-spacing: -.02em;
      }

      .cls-3 {
        letter-spacing: 0em;
      }

      .cls-4 {
        fill: #f2f2f2;
      }

      .cls-5 {
        fill: #d0d2d3;
      }

      .cls-6 {
        letter-spacing: 0em;
      }

      .cls-7 {
        letter-spacing: -.01em;
      }

      .cls-8 {
        font-family: RethinkSans-Medium, 'Rethink Sans';
        font-variation-settings: 'wght' 500;
        font-weight: 500;
      }

      .cls-8, .cls-9, .cls-10, .cls-11, .cls-12 {
        fill: #3b363c;
      }

      .cls-8, .cls-12 {
        font-size: 24px;
      }

      .cls-13 {
        letter-spacing: -.02em;
      }

      .cls-14 {
        letter-spacing: -.02em;
      }

      .cls-15 {
        letter-spacing: -.01em;
      }

      .cls-10 {
        font-family: Impact, Impact;
        font-size: 106.91px;
      }

      .cls-16 {
        fill: #fc7da8;
      }

      .cls-11 {
        font-family: Pristina-Regular, Pristina;
        font-size: 43.22px;
      }

      .cls-12 {
        font-family: RethinkSans-Regular, 'Rethink Sans';
        font-variation-settings: 'wght' 400;
      }

      .cls-17 {
        letter-spacing: -.02em;
      }

      .cls-18 {
        clip-path: url(#clippath);
      }
    </style>
    <clipPath id="clippath">
      <rect class="cls-5" x="39.4" y="349.44" width="272.79" height="194.85" transform="translate(608.68 239) rotate(85.83)"/>
    </clipPath>
  </defs>
  <g id="Post_2" data-name="Post 2">
    <g>
      <rect class="cls-16" x="10.99" y="228.06" width="786.72" height="402.26" rx="37.24" ry="37.24" transform="translate(-30.17 30.57) rotate(-4.17)"/>
      <text class="cls-12" transform="translate(333.46 484.55) rotate(-4.17)"><tspan x="0" y="0">Nomb</tspan><tspan class="cls-2" x="67.58" y="0">r</tspan><tspan x="75.84" y="0">e: Gabriela </tspan><tspan class="cls-13" x="201.07" y="0">F</tspan><tspan x="213.38" y="0">er</tspan><tspan class="cls-2" x="235.75" y="0">r</tspan><tspan x="244" y="0">er Martinez</tspan><tspan x="0" y="28.8">Diseñando con in</tspan><tspan class="cls-7" x="193.01" y="28.8">t</tspan><tspan x="201.96" y="28.8">ención y e</tspan><tspan class="cls-17" x="316.75" y="28.8">s</tspan><tspan x="328.22" y="28.8">tr</tspan><tspan class="cls-7" x="346.22" y="28.8">at</tspan><tspan x="368.54" y="28.8">egia </tspan></text>
      <text class="cls-8" transform="translate(330.23 448.86) rotate(-4.17) scale(.95 1)"><tspan x="0" y="0">G</tspan><tspan class="cls-1" x="18.26" y="0">r</tspan><tspan x="26.59" y="0">aphic Des</tspan><tspan class="cls-3" x="135.26" y="0">i</tspan><tspan class="cls-6" x="140.78" y="0">gn | UX/UI | F</tspan><tspan class="cls-15" x="278.04" y="0">r</tspan><tspan x="286.15" y="0">ont-End D</tspan><tspan class="cls-14" x="398.75" y="0">e</tspan><tspan x="411.74" y="0">v</tspan></text>
      <text class="cls-10" transform="translate(326.83 411.93) rotate(-4.17)"><tspan x="0" y="0">DESIGNER</tspan></text>
      <text class="cls-11" transform="translate(326.84 300.09) rotate(-4.17)"><tspan x="0" y="0">your new favorite</tspan></text>
      <g>
        <path class="cls-4" d="M275.76,305.6c-.28-3.82,2.59-7.14,6.4-7.41l-.61-8.4c-.23.02-.47.02-.7.02-.04,0-.07,0-.11,0-.18,0-.37-.02-.55-.04-.01,0-.02,0-.03,0-.11-.01-.22-.04-.32-.06-.11-.02-.21-.03-.31-.06-.16-.04-.32-.08-.48-.13-.06-.02-.11-.03-.17-.05,0,0,0,0-.02,0-.16-.05-.32-.12-.48-.19-.05-.02-.1-.04-.14-.06-.16-.07-.31-.15-.45-.23-.05-.02-.1-.05-.14-.07,0,0,0,0,0,0-.11-.06-.21-.13-.32-.2-.28-.18-.54-.36-.79-.57-.11-.1-.21-.2-.32-.3-.22-.21-.43-.44-.62-.68,0,0,0,0,0-.01-.04-.05-.07-.1-.1-.15-.1-.13-.19-.26-.28-.4-.03-.04-.05-.09-.08-.14-.09-.15-.17-.29-.25-.44,0,0,0-.01,0-.02-.03-.06-.06-.13-.09-.19-.06-.14-.13-.27-.18-.41-.04-.11-.07-.22-.11-.33-.03-.1-.07-.2-.1-.3,0,0,0-.02,0-.03-.04-.16-.08-.33-.11-.49-.01-.05-.03-.11-.04-.16-.04-.23-.07-.46-.09-.69l-9.5.69c.28,3.82-2.59,7.13-6.41,7.41-3.81.28-7.13-2.58-7.41-6.4l-9.5.69c.28,3.82-2.59,7.13-6.41,7.41-3.82.28-7.13-2.58-7.41-6.4l-9.5.69c.28,3.82-2.59,7.13-6.41,7.41-3.82.28-7.13-2.58-7.41-6.4l-9.5.69c.28,3.82-2.59,7.13-6.41,7.41s-7.13-2.58-7.41-6.4l-9.5.69c.28,3.82-2.59,7.13-6.41,7.41s-7.13-2.58-7.41-6.4l-9.5.69c.28,3.82-2.59,7.13-6.41,7.41s-7.13-2.58-7.41-6.4l-9.5.69c.28,3.82-2.59,7.13-6.41,7.41s-7.13-2.58-7.41-6.4l-9.5.69c.28,3.82-2.59,7.13-6.41,7.41s-7.13-2.58-7.41-6.4l-9.5.69c.28,3.81-2.59,7.13-6.41,7.41s-7.13-2.59-7.41-6.4l-9.5.69c.02.23.02.46.02.68-.05,2.13-1.07,4.04-2.66,5.28,0,0,0,0,0,0-.03.02-.07.05-.1.07-.15.11-.3.22-.45.32-.01,0-.02.01-.03.02-.37.23-.77.43-1.18.59-.01,0-.02,0-.03.01-.19.07-.39.14-.59.2,0,0-.01,0-.02,0-.16.04-.32.07-.48.11-.06.01-.11.03-.17.04-.23.04-.46.07-.7.09h0s.61,8.4.61,8.4h0c3.81-.28,7.14,2.58,7.41,6.41.28,3.81-2.59,7.13-6.41,7.41,0,0,0,0,0,0l.61,8.4s0,0,0,0c3.81-.28,7.14,2.59,7.41,6.41s-2.59,7.14-6.41,7.41c0,0,0,0,0,0l.61,8.39s0,0,0,0c3.81-.28,7.14,2.59,7.41,6.41.28,3.81-2.59,7.14-6.41,7.41,0,0,0,0,0,0l.61,8.4s0,0,0,0c3.81-.28,7.14,2.58,7.41,6.4s-2.59,7.14-6.4,7.42c0,0,0,0,0,0l.61,8.39s0,0,0,0c3.81-.28,7.14,2.58,7.41,6.41.28,3.81-2.59,7.14-6.41,7.41,0,0,0,0,0,0l.61,8.39s0,0,0,0c3.81-.28,7.14,2.59,7.41,6.41.28,3.81-2.59,7.14-6.41,7.41,0,0,0,0,0,0l.61,8.39s0,0,0,0c3.81-.28,7.14,2.59,7.41,6.41.28,3.82-2.59,7.14-6.41,7.41,0,0,0,0,0,0l.61,8.4s0,0,0,0c3.81-.28,7.14,2.58,7.41,6.41.28,3.81-2.59,7.14-6.41,7.41,0,0,0,0,0,0l.61,8.39s0,0,0,0c3.81-.28,7.14,2.59,7.41,6.41s-2.59,7.14-6.41,7.41c0,0,0,0,0,0l.61,8.39s0,0,0,0c3.81-.28,7.14,2.59,7.41,6.41.28,3.81-2.59,7.14-6.41,7.41,0,0,0,0,0,0l.61,8.39s0,0,0,0c3.81-.28,7.14,2.59,7.41,6.41.28,3.81-2.59,7.13-6.41,7.41,0,0,0,0,0,0l.61,8.4s0,0,0,0c3.81-.28,7.14,2.59,7.41,6.41s-2.59,7.14-6.41,7.41c0,0,0,0,0,0l.61,8.39s0,0,0,0c3.81-.28,7.14,2.59,7.41,6.41s-2.59,7.14-6.41,7.41c0,0,0,0,0,0l.61,8.39s0,0,0,0c2.15-.16,4.14.69,5.52,2.14,0,0,0,0,0,0,1.07,1.12,1.77,2.6,1.89,4.27,0,0,0,0,0,0l9.5-.69s0,0,0,0c-.28-3.81,2.59-7.14,6.41-7.41s7.14,2.59,7.41,6.41c0,0,0,0,0,0l9.5-.69s0,0,0,0c-.28-3.81,2.58-7.14,6.41-7.41,3.81-.28,7.14,2.59,7.41,6.41,0,0,0,0,0,0l9.5-.69s0,0,0,0c-.28-3.81,2.59-7.14,6.41-7.41s7.14,2.59,7.41,6.41c0,0,0,0,0,0l9.5-.69s0,0,0,0c-.28-3.81,2.58-7.14,6.41-7.41s7.14,2.59,7.41,6.41c0,0,0,0,0,0l9.5-.69s0,0,0,0c-.28-3.81,2.59-7.14,6.41-7.41,3.81-.28,7.14,2.59,7.41,6.41,0,0,0,0,0,0l9.5-.69s0,0,0,0c-.28-3.81,2.58-7.14,6.41-7.41s7.14,2.59,7.41,6.41c0,0,0,0,0,0l9.5-.69s0,0,0,0c-.28-3.81,2.59-7.14,6.41-7.41s7.14,2.59,7.41,6.41c0,0,0,0,0,0l9.5-.69s0,0,0,0c-.28-3.81,2.58-7.14,6.41-7.41s7.14,2.59,7.41,6.41c0,0,0,0,0,0l9.5-.69s0,0,0,0c-.28-3.81,2.59-7.14,6.41-7.41s7.14,2.59,7.41,6.41c0,0,0,0,0,0l9.5-.69h0c-.02-.23-.02-.47-.02-.7,0-.07.01-.13.01-.2,0-.15.01-.31.03-.46,0,0,0-.01,0-.02.02-.17.05-.33.09-.49.01-.06.02-.11.03-.17.05-.21.1-.41.17-.61,0-.01,0-.02.01-.04,0,0,0,0,0,0,.05-.16.11-.31.18-.46.03-.06.05-.13.08-.19.04-.08.08-.16.12-.24.06-.11.11-.23.17-.34,0,0,.01-.02.02-.03.02-.04.05-.08.07-.11.09-.15.18-.3.28-.45.1-.13.2-.26.3-.39.04-.05.07-.09.11-.14.02-.02.03-.03.05-.05.13-.15.27-.3.42-.44,0,0,0,0,.01-.01,1.12-1.06,2.6-1.76,4.26-1.88l-.61-8.39c-3.81.28-7.13-2.59-7.41-6.41s2.59-7.14,6.4-7.41l-.61-8.39c-3.81.28-7.13-2.59-7.41-6.41-.28-3.82,2.59-7.14,6.4-7.41l-.61-8.39c-3.81.28-7.13-2.59-7.41-6.41s2.59-7.14,6.4-7.42l-.61-8.39c-3.81.28-7.14-2.59-7.41-6.41-.28-3.81,2.59-7.14,6.4-7.41l-.61-8.39c-3.81.28-7.13-2.59-7.41-6.41-.28-3.82,2.59-7.14,6.4-7.41l-.61-8.4c-3.81.28-7.13-2.58-7.41-6.41-.28-3.81,2.59-7.13,6.41-7.41l-.61-8.4c-3.81.28-7.13-2.58-7.41-6.41-.28-3.81,2.59-7.14,6.4-7.41l-.61-8.39c-3.81.28-7.13-2.59-7.41-6.41s2.59-7.14,6.4-7.41l-.61-8.39c-3.81.28-7.13-2.59-7.41-6.41-.28-3.82,2.59-7.14,6.4-7.41l-.61-8.4c-3.81.28-7.13-2.58-7.41-6.41-.28-3.81,2.59-7.13,6.41-7.41l-.61-8.4c-3.81.28-7.14-2.59-7.41-6.41-.28-3.81,2.59-7.14,6.4-7.41l-.61-8.39c-3.81.28-7.13-2.59-7.41-6.41-.28-3.81,2.59-7.14,6.4-7.41l-.61-8.39c-3.81.28-7.13-2.59-7.41-6.41Z"/>
        <g>
          <rect class="cls-5" x="39.4" y="349.44" width="272.79" height="194.85" transform="translate(608.68 239) rotate(85.83)"/>
          <g class="cls-18">
            <image width="2250" height="4000" transform="translate(55.34 252.96) rotate(-4.17) scale(.11)" xlink:href="../../../../Downloads/20241012_111454.jpg"/>
          </g>
        </g>
      </g>
    </g>
    <g id="bar_code" data-name="bar code">
      <polygon id="line" class="cls-9" points="442.96 588.86 434.77 523.86 443.24 523.25 451.43 588.25 442.96 588.86"/>
      <polygon id="line-2" data-name="line" class="cls-9" points="342.77 596.1 334.58 531.1 342.82 530.51 351.01 595.51 342.77 596.1"/>
      <polygon id="line-3" data-name="line" class="cls-9" points="393.57 592.43 385.38 527.43 391.34 527 399.53 592 393.57 592.43"/>
      <polygon id="line-4" data-name="line" class="cls-9" points="423.3 590.28 415.11 525.28 420.49 524.89 428.68 589.89 423.3 590.28"/>
      <polygon id="line-5" data-name="line" class="cls-9" points="369.08 594.2 360.89 529.2 369.72 528.56 377.91 593.56 369.08 594.2"/>
      <polygon id="line-6" data-name="line" class="cls-9" points="383.4 593.16 375.21 528.17 380.15 527.81 388.33 592.81 383.4 593.16"/>
      <polygon id="line-7" data-name="line" class="cls-9" points="405.87 591.54 397.68 526.54 406.62 525.9 414.81 590.89 405.87 591.54"/>
      <polygon id="line-8" data-name="line" class="cls-9" points="463.56 587.37 455.37 522.37 464.32 521.73 472.51 586.73 463.56 587.37"/>
      <polygon id="line-9" data-name="line" class="cls-9" points="435.8 589.38 427.61 524.38 430.25 524.19 438.44 589.19 435.8 589.38"/>
      <polygon id="line-10" data-name="line" class="cls-9" points="361.68 594.73 353.49 529.74 356.13 529.54 364.32 594.54 361.68 594.73"/>
      <polygon id="line-11" data-name="line" class="cls-9" points="352.66 595.39 344.47 530.39 347.11 530.2 355.3 595.19 352.66 595.39"/>
      <polygon id="line-12" data-name="line" class="cls-9" points="475.65 586.5 467.46 521.5 468.59 521.42 476.78 586.42 475.65 586.5"/>
      <polygon id="line-13" data-name="line" class="cls-9" points="440.25 589.06 432.06 524.06 433.18 523.98 441.37 588.98 440.25 589.06"/>
      <polygon id="line-14" data-name="line" class="cls-9" points="459.3 587.68 451.11 522.68 452.23 522.6 460.42 587.6 459.3 587.68"/>
      <polygon id="line-15" data-name="line" class="cls-9" points="684.07 571.44 675.88 506.44 684.07 505.85 692.26 570.85 684.07 571.44"/>
      <polygon id="line-16" data-name="line" class="cls-9" points="654.65 573.56 646.46 508.56 654.51 507.98 662.7 572.98 654.65 573.56"/>
      <polygon id="line-17" data-name="line" class="cls-9" points="628.57 575.45 620.38 510.45 627.07 509.97 635.26 574.96 628.57 575.45"/>
      <polygon id="line-18" data-name="line" class="cls-9" points="638.61 574.72 630.42 509.72 640.47 509 648.66 574 638.61 574.72"/>
      <polygon id="line-19" data-name="line" class="cls-9" points="718.11 568.98 709.92 503.98 720.09 503.24 728.28 568.24 718.11 568.98"/>
      <polygon id="line-20" data-name="line" class="cls-9" points="665.4 572.79 657.21 507.79 661.17 507.5 669.36 572.5 665.4 572.79"/>
      <polygon id="line-21" data-name="line" class="cls-9" points="674.44 572.13 666.25 507.13 669.21 506.92 677.4 571.92 674.44 572.13"/>
      <polygon id="line-22" data-name="line" class="cls-9" points="702.92 570.08 694.73 505.08 700.01 504.69 708.2 569.69 702.92 570.08"/>
      <polygon id="line-23" data-name="line" class="cls-9" points="498.56 584.84 490.37 519.84 498.59 519.25 506.78 584.25 498.56 584.84"/>
      <polygon id="line-24" data-name="line" class="cls-9" points="483.55 585.93 475.36 520.93 483.58 520.33 491.77 585.33 483.55 585.93"/>
      <polygon id="line-25" data-name="line" class="cls-9" points="596.39 577.77 588.2 512.78 599.51 511.96 607.69 576.96 596.39 577.77"/>
      <polygon id="line-26" data-name="line" class="cls-9" points="509.86 584.03 501.67 519.03 510.67 518.38 518.86 583.38 509.86 584.03"/>
      <polygon id="line-27" data-name="line" class="cls-9" points="546.65 581.37 538.46 516.37 544.02 515.97 552.21 580.97 546.65 581.37"/>
      <polygon id="line-28" data-name="line" class="cls-9" points="582.8 578.75 574.62 513.76 578.01 513.51 586.2 578.51 582.8 578.75"/>
      <polygon id="line-29" data-name="line" class="cls-9" points="523.94 583.01 515.75 518.01 519.15 517.76 527.34 582.76 523.94 583.01"/>
      <polygon id="line-30" data-name="line" class="cls-9" points="554.37 580.81 546.18 515.81 547.88 515.69 556.07 580.69 554.37 580.81"/>
      <g>
        <polygon class="cls-9" points="558.76 514.9 553.11 515.31 561.3 580.31 566.95 579.9 558.76 514.9"/>
        <polygon class="cls-9" points="560.46 514.78 568.65 579.78 574.3 579.37 566.12 514.37 560.46 514.78"/>
      </g>
      <polygon id="line-31" data-name="line" class="cls-9" points="536.09 582.13 527.9 517.13 529.6 517.01 537.79 582.01 536.09 582.13"/>
      <polygon id="line-32" data-name="line" class="cls-9" points="732.99 567.9 724.8 502.9 729.29 502.58 737.48 567.58 732.99 567.9"/>
      <polygon id="line-33" data-name="line" class="cls-9" points="743.68 567.13 735.49 502.13 741.09 501.73 749.28 566.72 743.68 567.13"/>
      <polygon id="line-34" data-name="line" class="cls-9" points="755.89 566.25 747.7 501.25 753.35 500.84 761.54 565.84 755.89 566.25"/>
      <polygon id="line-35" data-name="line" class="cls-9" points="613.37 576.55 605.18 511.55 612.99 510.98 621.18 575.98 613.37 576.55"/>
    </g>
    <image width="8000" height="8000" transform="translate(388.57 19.98) rotate(-4.17) scale(.03)" xlink:href="../realistic_binder_clip.png"/>
  </g>
</svg>