<svg width="626" height="626" viewBox="0 0 626 626" fill="none" xmlns="http://www.w3.org/2000/svg">
<rect width="626" height="626" rx="40" fill="white"/>
<path d="M586 205H40V225H586V205Z" fill="#0B090B"/>
<path d="M586 412H40V432H586V412Z" fill="#0B090B"/>
<path d="M497 105H477V521H497V105Z" fill="#0B090B"/>
<path d="M153 105H133V520H153V105Z" fill="#0B090B"/>
<path d="M266.838 358.596L207.612 318.524L267 278.356V252.515L266.648 252L186 307.581L186.086 318.448L186.238 330.096L266.572 385L266.838 384.609V358.596Z" fill="#8B529B"/>
<path d="M359.162 358.596L418.388 318.524L359 278.356V252.515L359.352 252L440 307.581L439.914 318.448L439.762 330.096L359.428 385L359.162 384.609V358.596Z" fill="#8B529B"/>
<path d="M320.1 239L283 398H305.9L343 239H320.1Z" fill="#8B529B"/>
</svg>
