<svg viewBox="0 0 546 416" fill="none" xmlns="http://www.w3.org/2000/svg">
<path d="M546 100H0V120H546V100Z" fill="#FDF7F5"/>
<path d="M546 307H0V327H546V307Z" fill="#FDF7F5"/>
<path d="M457 0H437V416H457V0Z" fill="#FDF7F5"/>
<path d="M113 0H93V415H113V0Z" fill="#FDF7F5"/>
<path d="M226.838 253.596L167.612 213.524L227 173.356V147.515L226.648 147L146 202.581L146.086 213.448L146.238 225.096L226.572 280L226.838 279.609V253.596Z" fill="#FDF7F5"/>
<path d="M319.162 253.596L378.388 213.524L319 173.356V147.515L319.352 147L400 202.581L399.914 213.448L399.762 225.096L319.428 280L319.162 279.609V253.596Z" fill="#FDF7F5"/>
<path d="M280.1 134L243 293H265.9L303 134H280.1Z" fill="#FDF7F5"/>
</svg>
