<?xml version="1.0" encoding="UTF-8"?>
<svg id="Capa_2" data-name="Capa 2" xmlns="http://www.w3.org/2000/svg" viewBox="0 0 1515.13 705.82">
  <defs>
    <style>
      .cls-1 {
        fill:currentColor;
      }
    </style>
  </defs>
  <g id="Reticula">
    <g>
      <g>
        <path class="cls-1"
          d="M543.18,441.63c-41.06,0-57.37-10.87-57.37-30.37,0-9.56,6.94-18.37,17.81-20.62v-1.12c-10.87-1.88-18.75-7.69-18.75-18.56,0-8.44,5.25-14.81,13.87-18v-1.12c-6.37-4.5-10.69-12.75-10.69-22.68,0-20.43,15.56-35.43,44.24-35.43,15,0,24.75,3.19,33.37,8.25l16.31-18.75,12.94,11.62-16.87,18c3.38,4.5,5.44,9.94,5.44,16.5,0,21.18-15.75,35.06-47.05,35.06-10.5,0-19.31-1.87-25.31-5.06-3.19,1.87-5.44,4.87-5.44,8.81,0,4.5,2.81,7.5,7.12,8.81h53.24c19.31,0,29.62,13.69,29.62,31.68,0,20.06-16.5,32.99-52.49,32.99ZM556.86,400.57h-35.24c-6.19,0-9.94,4.69-9.94,10.69,0,7.87,7.87,14.06,29.81,14.06,18,0,27.37-5.44,27.37-12.94s-4.31-11.81-12-11.81ZM535.3,311.34c-13.68,0-20.81,7.69-20.81,18.18s7.12,18,21,18,20.62-7.31,20.62-17.81-7.31-18.37-20.81-18.37Z" />
        <path class="cls-1"
          d="M706.28,400.76v-14.25h-1.12c-9.56,10.87-22.87,17.06-39.56,17.06-23.06,0-37.12-11.81-37.12-32.62,0-17.81,14.81-31.87,38.81-31.87,13.68,0,26.43,1.69,35.24,4.31v-9c0-15.37-8.81-24.56-25.31-24.56-6.37,0-11.62,1.12-16.12,3.19,1.31,1.69,2.25,4.31,2.25,6.75,0,8.25-6,14.44-16.68,14.44-9.37,0-15.93-6-15.93-15,0-14.25,14.43-25.5,47.43-25.5s52.3,15,52.3,40.31v47.06h15.19v19.68h-39.37ZM702.53,356.7c-5.62-2.44-14.81-3.94-24.56-3.94-12.19,0-18.56,6.75-18.56,15.56s6,14.44,17.25,14.44,20.62-5.81,25.87-15.37v-10.69Z" />
        <path class="cls-1"
          d="M838.64,403.57c-17.06,0-27-6.19-35.81-17.25h-1.12l-5.44,14.44h-16.5v-115.67h-15.37v-19.68h42.18v43.87h1.12c8.44-9.75,18.56-15.56,32.06-15.56,27.56,0,46.3,19.12,46.3,51.55,0,39.18-19.87,58.3-47.43,58.3ZM833.76,314.34c-17.06,0-27.75,13.5-27.75,33.18s9.94,35.43,27.93,35.43c14.25,0,23.06-13.69,23.06-36.37,0-17.43-7.5-32.24-23.25-32.24Z" />
        <path class="cls-1"
          d="M1027.23,316.21l-35.06,86.99c-9.56,23.62-22.68,36.56-43.87,36.56s-35.81-12.94-35.81-30.37c0-10.69,6.56-18.93,17.06-18.93,9.56,0,15.37,7.31,15.37,16.5,0,6.56-3.19,11.25-7.69,14.06,2.06,2.25,5.06,3.75,8.81,3.75,9.56,0,15.93-9.19,20.43-23.81l-41.99-84.74h-11.62v-19.68h59.8v19.68h-15.18l22.87,52.87h1.12l19.87-52.87h-13.31v-19.68h48.93v19.68h-9.75Z" />
      </g>
      <g>
        <path class="cls-1"
          d="M503.17,631.14c-3.83,0-6.96-.77-9.37-2.31-2.42-1.54-4.19-3.58-5.33-6.14-1.14-2.55-1.71-5.33-1.71-8.32v-25.87h7.67v25.93c0,3.27.79,5.71,2.37,7.31,1.58,1.6,3.76,2.4,6.56,2.4s4.93-.8,6.53-2.4c1.6-1.6,2.39-4.03,2.39-7.31v-25.93h7.67v25.87c0,3.15-.5,5.81-1.5,7.96s-2.33,3.87-3.98,5.15c-1.66,1.28-3.47,2.21-5.45,2.78-1.98.58-3.92.87-5.84.87Z" />
        <path class="cls-1"
          d="M528.2,630.42l13.29-22.81-11.38-19.1h8.68l7.25,12.16,6.77-12.16h8.68l-11.2,19.1,13.59,22.81h-8.68l-9.4-15.81-8.92,15.81h-8.68Z" />
        <path class="cls-1"
          d="M605.21,631.14c-3.83,0-6.96-.77-9.37-2.31-2.42-1.54-4.19-3.58-5.33-6.14-1.14-2.55-1.71-5.33-1.71-8.32v-25.87h7.67v25.93c0,3.27.79,5.71,2.37,7.31,1.58,1.6,3.76,2.4,6.56,2.4s4.93-.8,6.53-2.4c1.6-1.6,2.39-4.03,2.39-7.31v-25.93h7.67v25.87c0,3.15-.5,5.81-1.5,7.96s-2.33,3.87-3.98,5.15c-1.66,1.28-3.47,2.21-5.45,2.78-1.97.58-3.92.87-5.84.87Z" />
        <path class="cls-1" d="M632.33,630.42v-41.92h7.67v41.92h-7.67Z" />
        <path class="cls-1"
          d="M667.42,630.42v-41.92h14.31c4.99,0,9.07.88,12.25,2.63,3.17,1.76,5.51,4.21,7.01,7.37,1.5,3.15,2.25,6.81,2.25,10.96,0,4.47-.83,8.27-2.49,11.41-1.66,3.13-4.08,5.51-7.28,7.13s-7.11,2.43-11.74,2.43h-14.31ZM675.09,623.83h6.29c3.55,0,6.35-.58,8.38-1.74,2.04-1.16,3.48-2.81,4.34-4.97s1.29-4.71,1.29-7.66c0-4.99-1.15-8.64-3.44-10.96-2.3-2.31-5.82-3.47-10.57-3.47h-6.29v28.8Z" />
        <path class="cls-1"
          d="M712.52,630.42v-41.92h26.89v6.53h-19.22v10h16.47v6.53h-16.47v12.34h19.22v6.53h-26.89Z" />
        <path class="cls-1"
          d="M761.32,630.42l-15.33-41.92h8.2l11.86,34.07,11.92-34.07h8.08l-15.33,41.92h-9.4Z" />
        <path class="cls-1"
          d="M793.54,630.42v-41.92h26.89v6.53h-19.22v10h16.47v6.53h-16.47v12.34h19.22v6.53h-26.89Z" />
        <path class="cls-1" d="M830.18,630.42v-41.92h7.67v35.39h18.08v6.53h-25.75Z" />
        <path class="cls-1"
          d="M881.44,631.14c-2.79,0-5.48-.5-8.05-1.5-2.57-1-4.86-2.43-6.86-4.31-2-1.88-3.57-4.15-4.73-6.83-1.16-2.67-1.74-5.69-1.74-9.04s.58-6.37,1.74-9.04c1.16-2.67,2.73-4.95,4.73-6.83,1.99-1.88,4.28-3.31,6.86-4.31,2.57-1,5.26-1.5,8.05-1.5s5.54.5,8.11,1.5c2.57,1,4.86,2.44,6.86,4.31,1.99,1.88,3.57,4.15,4.73,6.83,1.16,2.68,1.74,5.69,1.74,9.04s-.58,6.37-1.74,9.04c-1.16,2.68-2.74,4.95-4.73,6.83-2,1.88-4.28,3.31-6.86,4.31-2.57,1-5.28,1.5-8.11,1.5ZM881.44,624.19c2.23,0,4.39-.53,6.47-1.59,2.07-1.06,3.77-2.68,5.09-4.88,1.32-2.2,1.98-4.95,1.98-8.26s-.66-6.13-1.98-8.32c-1.32-2.19-3.02-3.82-5.09-4.88-2.08-1.06-4.23-1.59-6.47-1.59s-4.33.53-6.41,1.59c-2.08,1.06-3.77,2.69-5.09,4.88-1.32,2.2-1.98,4.97-1.98,8.32s.66,6.07,1.98,8.26c1.32,2.2,3.01,3.82,5.09,4.88,2.08,1.06,4.21,1.59,6.41,1.59Z" />
        <path class="cls-1"
          d="M912.16,630.42v-41.92h15.51c2.91,0,5.48.49,7.7,1.47,2.21.98,3.96,2.41,5.24,4.28,1.28,1.88,1.92,4.15,1.92,6.83s-.64,4.96-1.92,6.86c-1.28,1.9-3.02,3.33-5.24,4.31-2.22.98-4.78,1.47-7.7,1.47h-7.85v16.71h-7.66ZM919.82,607.18h7.67c2.67,0,4.55-.57,5.63-1.71s1.62-2.6,1.62-4.4-.54-3.2-1.62-4.34-2.96-1.71-5.63-1.71h-7.67v12.16Z" />
        <path class="cls-1"
          d="M951.02,630.42v-41.92h26.89v6.53h-19.22v10h16.47v6.53h-16.47v12.34h19.22v6.53h-26.89Z" />
        <path class="cls-1"
          d="M987.67,630.42v-41.92h14.55c2.91,0,5.44.47,7.57,1.41,2.13.94,3.8,2.31,5,4.1s1.8,3.99,1.8,6.59c0,2.99-.8,5.39-2.39,7.19-1.6,1.8-3.77,3.03-6.53,3.71l11.68,18.92h-9.04l-10.3-17.67h-4.67v17.67h-7.67ZM995.34,606.23h6.71c1.8,0,3.18-.25,4.16-.75.98-.5,1.65-1.17,2.04-2.01.38-.84.57-1.8.57-2.87s-.19-2.04-.57-2.87c-.38-.84-1.06-1.5-2.04-1.98-.98-.48-2.37-.72-4.16-.72h-6.71v11.2Z" />
      </g>
      <rect class="cls-1" x="0" y="169.04" width="1515.13" height="18.91" />
      <rect class="cls-1" x="0" y="520.33" width="1515.02" height="18.91" />
      <g>
        <rect class="cls-1" x="1114.6" y="686.67" width="18.91" height="18.9" />
        <rect class="cls-1" x="1114.6" y=".24" width="18.91" height="686.43" />
        <rect class="cls-1" x="398.91" y="686.67" width="715.69" height="18.9" />
        <rect class="cls-1" x="380" y="686.67" width="18.91" height="18.9" />
        <rect class="cls-1" x="380" y=".93" width="18.91" height="685.74" />
      </g>
      <polygon class="cls-1"
        points="208.44 416.92 115.31 354.08 208.69 291.06 208.69 250.53 208.15 249.73 81.33 336.9 81.45 353.94 81.7 372.21 208.03 458.34 208.44 457.73 208.44 416.92" />
      <polygon class="cls-1"
        points="1305.17 415.85 1398.3 353.01 1304.92 289.99 1304.92 249.45 1305.46 248.65 1432.29 335.83 1432.16 352.87 1431.91 371.14 1305.59 457.27 1305.17 456.66 1305.17 415.85" />
      <polygon class="cls-1"
        points="1245.03 229.31 1187.33 478.76 1222.95 478.76 1280.66 229.31 1245.03 229.31" />
    </g>
  </g>
</svg>