<svg width="42" height="42" viewBox="0 0 42 42" fill="none" xmlns="http://www.w3.org/2000/svg">
<path d="M14.1851 7.77112H20.4981L29.304 34.8725H23.9967L21.5433 27.1922H12.9386L10.6062 34.8725H5.5L14.1851 7.77112ZM15.8336 16.7779L13.743 23.4535H20.6996L18.568 16.7779C18.0456 15.1298 17.603 13.2797 17.2015 11.7115H17.1207C16.7184 13.2797 16.3163 15.1695 15.8336 16.7779ZM30.9513 9.8216C30.9513 8.29361 32.0769 7.12744 33.7254 7.12744C35.4141 7.12744 36.4598 8.29361 36.5 9.8216C36.5 11.3096 35.4141 12.4757 33.6852 12.4757C32.0368 12.4757 30.9513 11.3096 30.9513 9.8216ZM31.2323 34.8725V15.2904H36.2189V34.8725H31.2323Z" fill="black"/>
</svg>
