<svg xmlns="http://www.w3.org/2000/svg" x="0px" y="0px" width="100" height="100" viewBox="0,0,256,256">
<g fill="#000" fill-rule="nonzero" stroke="none" stroke-width="1" stroke-linecap="butt" stroke-linejoin="miter" stroke-miterlimit="10" stroke-dasharray="" stroke-dashoffset="0" font-family="none" font-weight="none" font-size="none" text-anchor="none" style="mix-blend-mode: normal"><g transform="scale(5.12,5.12)"><path d="M25,2c-12.683,0 -23,10.317 -23,23c0,12.683 10.317,23 23,23c12.683,0 23,-10.317 23,-23c0,-12.683 -10.317,-23 -23,-23zM24.109,39.954c-6.781,0 -11.176,-5.086 -11.176,-12.782c0,-9.942 6.888,-17.128 14.639,-17.128c4.69,0 7.486,2.361 7.486,5.573c0,3.313 -2.395,5.658 -4.436,5.658c-0.508,0 -0.764,-0.249 -0.764,-0.661c0,-0.917 1.478,-2.295 1.478,-4.896c0,-2.192 -1.338,-3.569 -3.53,-3.569c-4.69,0 -10.029,5.541 -10.029,15.124c0,5.657 2.809,9.753 7.346,9.753c3.924,0 7.314,-2.816 9.277,-6.797c0.174,-0.35 0.341,-0.51 0.531,-0.51c0.275,0 0.538,0.236 0.538,0.75c-0.002,2.324 -4.163,9.485 -11.36,9.485z"></path></g></g>
</svg>