<svg width="33" height="25" viewBox="0 0 33 25" fill="none" xmlns="http://www.w3.org/2000/svg">
<path d="M14.6667 18.1626C14.6667 21.7524 11.7566 24.6626 8.16674 24.6626C5.98501 24.6626 4.05434 23.5877 2.87541 21.9386C1.63918 20.6799 -0.633262 16.8626 0.166738 11.6626C0.966738 6.46258 6.50007 2.16258 9.16674 0.662582C10.0001 0.162582 11.8667 -0.537418 12.6667 0.662582C13.4667 1.86258 12.6667 3.16258 12.1667 3.66258L9.16674 6.16258C8.50007 6.82925 7.16674 8.46258 7.16674 9.66258C7.16674 10.8626 7.8334 11.4959 8.16674 11.6626C11.7566 11.6626 14.6667 14.5727 14.6667 18.1626Z" fill="#8C659B"/>
<path d="M32.6667 18.1626C32.6667 21.7524 29.7566 24.6626 26.1667 24.6626C23.985 24.6626 22.0543 23.5877 20.8754 21.9386C19.6392 20.6799 17.3667 16.8626 18.1667 11.6626C18.9667 6.46258 24.5001 2.16258 27.1667 0.662582C28.0001 0.162582 29.8667 -0.537418 30.6667 0.662582C31.4667 1.86258 30.6667 3.16258 30.1667 3.66258L27.1667 6.16258C26.5001 6.82925 25.1667 8.46258 25.1667 9.66258C25.1667 10.8626 25.8334 11.4959 26.1667 11.6626C29.7566 11.6626 32.6667 14.5727 32.6667 18.1626Z" fill="#8C659B"/>
</svg>
