<svg width="42" height="42" viewBox="0 0 42 42" fill="none" xmlns="http://www.w3.org/2000/svg">
<path d="M12.2505 9.56881H17.4055V24.0182C17.4055 30.5296 14.2845 32.8027 9.29855 32.8027C8.07818 32.8027 6.51698 32.5993 5.5 32.2598L6.0772 28.0875C6.78909 28.3252 7.70575 28.4942 8.72272 28.4942C10.8941 28.4942 12.2505 27.5103 12.2505 23.9838V9.56881ZM21.8816 27.1392C23.238 27.8511 25.4094 28.5643 27.6138 28.5643C29.9886 28.5643 31.2433 27.5803 31.2433 26.0549C31.2433 24.6641 30.1576 23.8161 27.4104 22.8665C23.6118 21.5101 21.1024 19.4074 21.1024 16.0486C21.1024 12.1484 24.3925 9.19775 29.7508 9.19775C32.362 9.19775 34.2283 9.70624 35.5847 10.3508L34.4317 14.4888C33.5494 14.0476 31.8879 13.4031 29.6835 13.4031C27.4448 13.4031 26.3591 14.4544 26.3591 15.6075C26.3591 17.0656 27.6138 17.7101 30.5988 18.8632C34.6351 20.3557 36.5 22.4583 36.5 25.714C36.5 29.547 33.5837 32.8027 27.3087 32.8027C24.6975 32.8027 22.1194 32.0908 20.8303 31.3775L21.8816 27.1392Z" fill="black"/>
</svg>
