<svg width="80" height="80" viewBox="0 0 80 80" fill="none" xmlns="http://www.w3.org/2000/svg">
<path fill-rule="evenodd" clip-rule="evenodd" d="M34.2383 16.7227C34.4586 16.7162 34.6833 16.7459 34.9023 16.8164C56.2643 23.5844 61.5496 43.0549 61.7656 43.8789C61.9496 44.5869 61.7312 45.3398 61.1992 45.8398C60.8232 46.1938 60.3301 46.3789 59.8281 46.3789C59.6201 46.3789 59.411 46.3472 59.207 46.2812C53.275 44.3453 48.8858 45.4138 48.8398 45.4258C48.3058 45.5598 47.7316 45.468 47.2656 45.168C46.7996 44.87 46.4711 44.3936 46.3711 43.8516C44.0891 31.4836 32.9968 20.2428 32.8828 20.1328C32.2328 19.4828 32.1118 18.4696 32.5898 17.6836C32.9498 17.0911 33.5773 16.742 34.2383 16.7227ZM49.8945 41.2266C48.2385 34.5306 44.5536 28.4131 41.3516 24.0391C50.2276 29.2891 54.6986 37.1034 56.6406 41.5234C54.9286 41.2214 53.4013 41.1211 52.1133 41.1211C51.2593 41.1211 50.5165 41.1646 49.8945 41.2266Z" fill="black"/>
<path fill-rule="evenodd" clip-rule="evenodd" d="M13.6094 12.1289C13.8244 12.1243 14.0458 12.1562 14.2578 12.2227C15.1178 12.4987 35.3655 19.2219 42.8555 44.5859C43.0735 45.3279 42.8436 46.1246 42.2656 46.6406C41.6896 47.1546 40.8683 47.2943 40.1523 46.9883C40.0163 46.9343 26.2702 41.2281 17.2422 47.9961C16.8862 48.2641 16.463 48.3945 16.043 48.3945C15.595 48.3945 15.1493 48.2472 14.7812 47.9492C14.0713 47.3712 13.8425 46.3828 14.2305 45.5508C14.3145 45.3708 22.5246 27.3133 12.1406 15.4453C11.5506 14.7693 11.4846 13.7812 11.9766 13.0312C12.3456 12.4657 12.9642 12.1426 13.6094 12.1289ZM19.707 42.1328C21.323 36.6108 22.8742 27.4858 19.1602 19.0898C24.8202 22.5958 33.0417 29.5284 37.7617 41.9844C33.4537 40.8144 26.309 39.6488 19.707 42.1328Z" fill="black"/>
<path fill-rule="evenodd" clip-rule="evenodd" d="M63.7773 47.8828C64.6633 47.8248 65.4769 48.3303 65.7969 49.1523C66.1149 49.9743 65.8562 50.9111 65.1602 51.4531C64.7782 51.7511 56.8851 57.8802 51.4531 60.9062C52.1511 61.7063 52.504 62 53.168 62C53.892 62 54.2245 61.6851 55.0625 60.7031C55.9825 59.6251 57.37 58 60 58C60.062 58 60.1119 58.0312 60.1719 58.0352C60.3219 58.0252 60.4611 58 60.6211 58C63.2471 58 64.6328 59.6251 65.5508 60.7031C66.3848 61.6831 66.7176 62 67.4336 62C68.5396 62 69.4336 62.894 69.4336 64C69.4336 65.106 68.5396 66 67.4336 66C64.8096 66 63.4219 64.3749 62.5039 63.2969C61.6699 62.3169 61.3391 62 60.6211 62C59.9011 62 59.5704 62.3169 58.7344 63.2969C57.8164 64.3749 56.4288 66 53.8008 66C53.7388 66 53.687 65.9708 53.625 65.9648C53.473 65.9768 53.33 66 53.168 66C50.538 66 49.1505 64.3749 48.2305 63.2969C47.3925 62.3149 47.0599 62 46.3359 62C45.6159 62 45.2852 62.3169 44.4492 63.2969C43.5332 64.3749 42.1436 66 39.5156 66C36.8876 66 35.5019 64.3749 34.5859 63.2969C33.7499 62.3169 33.4153 62 32.6953 62C31.9753 62 31.6446 62.3169 30.8086 63.2969C29.8906 64.3749 28.503 66 25.875 66C23.247 66 21.8633 64.3749 20.9453 63.2969C20.1133 62.3169 19.7844 62 19.0664 62C18.3464 62 18.0157 62.3169 17.1797 63.2969C16.2637 64.3749 14.8741 66 12.2461 66C11.1401 66 10.2461 65.106 10.2461 64C10.2461 62.894 11.1401 62 12.2461 62C12.9661 62 13.2968 61.6831 14.1328 60.7031C14.4508 60.3291 14.8329 59.8926 15.2969 59.4766L12.1562 54.8984C11.7542 54.3084 11.6959 53.5463 12.0039 52.9023C12.3119 52.2583 12.9403 51.8274 13.6523 51.7734L63.7773 47.8828ZM17.4141 55.4922L57.1758 52.4023C54.0518 54.6363 50.3163 57.1446 47.9023 58.2266C47.4323 58.0906 46.9199 58 46.3359 58C43.7079 58 42.3183 59.6251 41.4023 60.7031C40.5663 61.6831 40.2376 62 39.5156 62C38.7936 62 38.4629 61.6831 37.6289 60.7031C36.7129 59.6251 35.3253 58 32.6953 58C30.0653 58 28.6797 59.6251 27.7617 60.7031C26.9257 61.6831 26.595 62 25.875 62C25.157 62 24.8262 61.6831 23.9922 60.7031C23.0842 59.6371 21.7146 58.0398 19.1406 58.0078L17.4141 55.4922Z" fill="black"/>
</svg>
