<svg width="42" height="42" viewBox="0 0 42 42" fill="none" xmlns="http://www.w3.org/2000/svg">
<path d="M5.5 8.61956C7.1739 8.31472 9.49436 8.08716 12.6513 8.08716C16.0738 8.08716 18.5845 8.81007 20.2196 10.1792C21.7409 11.4342 22.7302 13.4503 22.7302 15.8464C22.7302 18.2803 21.9694 20.2965 20.5239 21.666C18.6607 23.5301 15.7319 24.4044 12.4232 24.4044C11.5477 24.4044 10.749 24.3668 10.1403 24.2522V33.913H5.5V8.61956ZM10.1403 20.5625C10.7114 20.7151 11.4718 20.7527 12.4232 20.7527C15.9224 20.7527 18.052 19.0412 18.052 16.0364C18.052 13.184 16.0738 11.6626 12.8414 11.6626C11.5477 11.6626 10.6351 11.7764 10.1403 11.8907V20.5625ZM30.338 18.9273C31.251 16.3029 33.419 14.9713 35.3964 14.9713L36.5 15.0855V19.4981C36.1193 19.4215 35.7008 19.346 35.1301 19.346C32.8862 19.346 31.3653 20.7906 30.9467 22.8831L30.7945 24.3289V33.913H26.1159V21.3613C26.1159 18.8511 26.078 17.0638 25.9642 15.3903H30.0337L30.1851 18.9273H30.338Z" fill="black"/>
</svg>
