<svg width="42" height="42" viewBox="0 0 42 42" fill="none" xmlns="http://www.w3.org/2000/svg">
<path d="M5.5 8.52766C7.17793 8.22576 9.50406 8 12.6685 8C16.1005 8 18.6171 8.71573 20.257 10.0721C21.7822 11.3158 22.7739 13.3126 22.7739 15.6865C22.7739 18.0981 22.0115 20.0953 20.5625 21.452C18.694 23.2982 15.7578 24.165 12.4404 24.165C11.5633 24.165 10.7623 24.1274 10.152 24.0141V33.5853H5.5V8.52766ZM10.152 20.3595C10.7243 20.5104 11.4871 20.5477 12.4404 20.5477C15.9482 20.5477 18.0835 18.8523 18.0835 15.8751C18.0835 13.0493 16.1005 11.5417 12.8592 11.5417C11.5633 11.5417 10.6481 11.655 10.152 11.7682V20.3595ZM23.8014 20.5854C23.8014 17.3447 26.5091 14.8199 30.8183 14.8199C32.877 14.8199 34.6697 15.3476 35.7368 15.9128L34.822 19.191C34.0211 18.7386 32.5335 18.1362 30.8944 18.1362C29.2169 18.1362 28.3014 18.9276 28.3014 20.0573C28.3014 21.2262 29.1784 21.7911 31.5427 22.6201C34.8982 23.8259 36.4611 25.5217 36.5 28.2342C36.5 31.5501 33.8688 34 28.9491 34C26.6995 34 24.6784 33.4344 23.3063 32.681L24.221 29.3275C25.2889 29.9684 27.31 30.6458 28.988 30.6458C31.0472 30.6458 31.9615 29.8171 31.9615 28.6117C31.9615 27.3679 31.1994 26.727 28.9118 25.9356C25.2889 24.6925 23.7637 22.7326 23.8014 20.5854Z" fill="black"/>
</svg>
