<svg version="1.1" id="Uploaded to svgrepo.com" xmlns="http://www.w3.org/2000/svg" xmlns:xlink="http://www.w3.org/1999/xlink" viewBox="0 0 32 32" xml:space="preserve" fill="#000000"><g id="SVGRepo_bgCarrier" stroke-width="0"></g><g id="SVGRepo_tracerCarrier" stroke-linecap="round" stroke-linejoin="round"></g><g id="SVGRepo_iconCarrier"> <style type="text/css"> .sharpcorners_een{fill:#141414;} .st0{fill:#141414;} </style> <path class="sharpcorners_een" d="M29,22c0,2-1.586,4.425-4.305,4.905c-2.719,0.479-5.235-0.895-5.619-3.071 c-0.384-2.176,1.51-4.328,4.229-4.807c1.364-0.241,2.676-0.014,3.695,0.546V8.465l-15,3.579c0,0,0,10.956,0,12.956 s-1.586,4.425-4.305,4.905c-2.719,0.479-5.235-0.895-5.619-3.071c-0.384-2.176,1.51-4.328,4.229-4.807 C7.67,21.786,8.982,22.012,10,22.572V6.421L29,2C29,2,29,20,29,22z"></path> </g></svg>