<?xml version="1.0" encoding="UTF-8"?>
<svg id="Capa_1" data-name="Capa 1" xmlns="http://www.w3.org/2000/svg" viewBox="0 0 171.31 171.85">
  <path d="M52.73,53.07c5.37,7.08,10.13,10.28,14.27,9.61,9.28-1.5,15.49-22.39,18.65-62.68,3.01,39.93,9.11,60.65,18.3,62.17,3.91.64,8.38-2.18,13.4-8.48-6.79,7.1-7.24,11.83-6.68,14.6,3.46,17.33,57.94,17.79,60.64,17.79-14.19.83-58.66,4.2-61.14,18.92-.51,3.01.6,7.38,7.19,13.47-6.72-7.03-11.25-7.75-14.07-7.18-15.59,3.14-16.87,53.18-17.02,60.55-1.08-18.51-4.64-58.52-18.08-60.89-3.09-.55-7.5.76-13.62,7.83,6.77-6.79,7.46-11.4,6.9-14.29-3.2-16.37-54.58-17.67-61.46-17.8,33.81.51,57.49-6.62,59.78-18.07.54-2.68.34-7.76-7.05-15.56Z" fill="#0b090b"/>
</svg>