<?xml version="1.0" encoding="UTF-8"?>
<svg id="Capa_1" data-name="Capa 1" xmlns="http://www.w3.org/2000/svg" viewBox="0 0 81.78 73.04">
  <g>
    <path d="M8.22,0h65.09c4.68,0,8.48,3.8,8.48,8.48v56.09c0,4.68-3.8,8.48-8.48,8.48H16.7c-4.68,0-8.48-3.8-8.48-8.48V0h0Z" fill="#ffe971"/>
    <polygon points="8.22 0 8.22 8.22 0 8.22 8.22 0" fill="#ffdb45"/>
  </g>
  <g>
    <g id="SVGRepo_iconCarrier" data-name="SVGRepo iconCarrier">
      <g id="pen">
        <path d="M51.54,53.39c0-.59-.48-1.07-1.07-1.07h-11.43c-.59,0-1.07.48-1.07,1.07v2.38c0,.59.48,1.07,1.07,1.07h11.43c.59,0,1.07-.48,1.07-1.07v-2.38s0,0,0,0Z"/>
        <path d="M50.89,45.94l2.96-7.3c.86-2.11.54-4.52-.83-6.34l-6-7.95c-.11-.15-.49-.21-.66-.15-.18.06-.48.22-.48.41v11.38c1.13.42,1.86,1.4,1.86,2.54,0,1.52-1.14,2.76-2.67,2.76-1.52,0-2.9-1.24-2.9-2.76,0-1.1.31-2.04,1.45-2.49v-11.47c0-.18.06-.35-.11-.41-.17-.06-.28,0-.39.14l-6.12,7.99c-1.41,1.82-1.72,4.26-.85,6.4l3.03,7.44c-.44.41-.72,1-.72,1.69,0,1.25.93,2.24,2.07,2.24h9.25c1.14,0,2.07-.99,2.07-2.24,0-.8-.38-1.48-.96-1.88Z"/>
      </g>
    </g>
    <circle cx="45" cy="22.41" r="2.3" stroke="#000" stroke-miterlimit="10" stroke-width=".5"/>
    <circle cx="64.14" cy="34.8" r="2.3" stroke="#000" stroke-miterlimit="10" stroke-width=".5"/>
    <circle cx="25.86" cy="34.8" r="2.3" stroke="#000" stroke-miterlimit="10" stroke-width=".5"/>
    <path d="M27.55,33.25c.74-.95,6.78-8.42,17.2-8.54,10.72-.12,17,7.64,17.7,8.54" fill="none" stroke="#000" stroke-miterlimit="10"/>
  </g>
</svg>