<?xml version="1.0" encoding="UTF-8"?>
<svg id="Capa_1" data-name="Capa 1" xmlns="http://www.w3.org/2000/svg" viewBox="0 0 81.78 73.04">
  <g>
    <path d="M8.22,0h65.09c4.68,0,8.48,3.8,8.48,8.48v56.09c0,4.68-3.8,8.48-8.48,8.48H16.7c-4.68,0-8.48-3.8-8.48-8.48V0h0Z" fill="#7d9e4a"/>
    <polygon points="8.22 0 8.22 8.22 0 8.22 8.22 0" fill="#5e7a36"/>
  </g>
  <g>
    <polygon points="35.22 43.53 24.85 36.53 35.25 29.51 35.25 24.99 35.19 24.9 21.07 34.61 21.08 36.51 21.11 38.55 35.18 48.14 35.22 48.07 35.22 43.53"/>
    <polygon points="54.78 43.41 65.15 36.41 54.75 29.39 54.75 24.87 54.81 24.78 68.93 34.49 68.92 36.39 68.89 38.43 54.82 48.02 54.78 47.95 54.78 43.41"/>
    <polygon points="46.23 22.63 39.8 50.41 43.77 50.41 50.2 22.63 46.23 22.63"/>
  </g>
</svg>