<svg fill="#000000" height="200px" width="200px" version="1.1" id="Layer_1" xmlns="http://www.w3.org/2000/svg" xmlns:xlink="http://www.w3.org/1999/xlink" viewBox="0 0 511.999 511.999" xml:space="preserve"><g id="SVGRepo_bgCarrier" stroke-width="0"></g><g id="SVGRepo_tracerCarrier" stroke-linecap="round" stroke-linejoin="round"></g><g id="SVGRepo_iconCarrier"> <g> <g> <path d="M473.148,389.239c-9.251-10.266-89.754-99.598-99.945-110.907l38.667-42.908c3.101-3.442,4.817-7.909,4.817-12.54V18.732 C416.687,8.241,408.102,0,397.956,0H114.043c-10.19,0-18.732,8.282-18.732,18.732v204.152c0,4.632,1.716,9.099,4.817,12.54 l38.667,42.908c-9.382,10.411-90.588,100.523-99.944,110.905c-6.926,7.684-6.31,19.53,1.376,26.455 c7.688,6.927,19.532,6.306,26.455-1.377l24.82-27.543l22.933,20.666l-24.821,27.544c-6.926,7.684-6.31,19.53,1.376,26.455 c7.688,6.927,19.532,6.306,26.455-1.377l24.821-27.543l22.933,20.666l-24.821,27.543c-6.926,7.685-6.31,19.53,1.376,26.455 c7.686,6.928,19.532,6.308,26.455-1.375c4.082-4.531,49.083-54.462,87.791-97.417c12.867,14.279,75.129,83.364,87.794,97.417 c6.923,7.681,18.764,8.303,26.455,1.375c7.684-6.926,8.299-18.769,1.375-26.455l-24.82-27.542l22.933-20.666l24.821,27.543 c6.923,7.681,18.764,8.303,26.455,1.375c7.684-6.926,8.299-18.769,1.375-26.455l-24.821-27.542l22.933-20.666l24.82,27.542 c6.927,7.688,18.773,8.299,26.455,1.377C479.457,408.768,480.073,396.924,473.148,389.239z M379.224,215.689l-31.236,34.661 l-66.774-74.096c5.284-5.864,93.706-103.982,98.009-108.758V215.689z M355.859,37.463l-89.405,99.207h-20.911 c-18.563-20.597-70.156-77.85-89.403-99.207H355.859z M190.28,425.358c-16.029-14.445-36.492-32.884-73.697-66.413l47.427-52.632 l66.771,74.095L190.28,425.358z M321.718,425.36c-20.519-22.771-171.072-189.84-188.943-209.67V67.499 c211.638,234.846,181.71,201.634,262.64,291.448C379.385,373.392,358.923,391.832,321.718,425.36z"></path> </g> </g> </g></svg>